<?xml version="1.0" encoding="UTF-8" standalone="no"?>
<!DOCTYPE svg PUBLIC "-//W3C//DTD SVG 1.1//EN" "http://www.w3.org/Graphics/SVG/1.1/DTD/svg11.dtd">
<svg width="100%" height="100%" viewBox="0 0 512 512" version="1.1" xmlns="http://www.w3.org/2000/svg" xmlns:xlink="http://www.w3.org/1999/xlink" xml:space="preserve" xmlns:serif="http://www.serif.com/" style="fill-rule:evenodd;clip-rule:evenodd;stroke-linecap:round;stroke-linejoin:round;stroke-miterlimit:1.5;">
    <g transform="matrix(1,0,0,1,8.04131,5.22187)">
        <rect x="37.678" y="40.661" width="210.289" height="210.289" style="fill:white;stroke:black;stroke-width:14.58px;"/>
    </g>
    <g transform="matrix(1,0,0,1,218.314,5.22187)">
        <rect x="37.678" y="40.661" width="210.289" height="210.289" style="fill:white;stroke:black;stroke-width:14.58px;"/>
    </g>
    <g transform="matrix(1,0,0,1,8.04131,215.168)">
        <rect x="37.678" y="40.661" width="210.289" height="210.289" style="fill:white;stroke:black;stroke-width:14.58px;"/>
    </g>
    <g transform="matrix(1,0,0,1,218.314,215.168)">
        <rect x="37.678" y="40.661" width="210.289" height="210.289" style="fill:white;stroke:black;stroke-width:14.58px;"/>
    </g>
    <g transform="matrix(1,0,0,1,-0.0048727,48.9835)">
        <ellipse cx="150.869" cy="102.044" rx="29.468" ry="29.203" style="fill:rgb(0,3,255);stroke:black;stroke-width:4.17px;"/>
    </g>
    <g transform="matrix(1,0,0,1,210.267,258.929)">
        <ellipse cx="150.869" cy="102.044" rx="29.468" ry="29.203" style="fill:rgb(255,0,0);stroke:black;stroke-width:4.17px;"/>
    </g>
</svg>
